<svg id="Layer_1" data-name="Layer 1" xmlns="http://www.w3.org/2000/svg" xmlns:xlink="http://www.w3.org/1999/xlink" viewBox="0 0 1807 731"><defs><style>.cls-1,.cls-12,.cls-33,.cls-34{fill:none;}.cls-2{clip-path:url(#clip-path);}.cls-3{fill:url(#linear-gradient);}.cls-4{opacity:0.3;}.cls-5{fill:#d4def7;}.cls-6{fill:#9ed0ff;}.cls-7{fill:#bbdef9;}.cls-8{fill:#003aa5;}.cls-9{fill:#d6c9ae;}.cls-10{fill:#ecddbc;}.cls-11{opacity:0.6;}.cls-12{stroke:#ecddbc;}.cls-12,.cls-33,.cls-34{stroke-miterlimit:10;}.cls-13{fill:url(#linear-gradient-2);}.cls-14{fill:url(#linear-gradient-3);}.cls-15{fill:url(#linear-gradient-4);}.cls-16{fill:url(#linear-gradient-5);}.cls-17{fill:url(#linear-gradient-6);}.cls-18{fill:url(#linear-gradient-7);}.cls-19{fill:url(#linear-gradient-8);}.cls-20{fill:#ffbe00;}.cls-21,.cls-22{fill:url(#linear-gradient-9);}.cls-22{opacity:0.5;isolation:isolate;}.cls-23{fill:url(#linear-gradient-11);}.cls-24{fill:url(#linear-gradient-12);}.cls-25{fill:url(#linear-gradient-13);}.cls-26{fill:url(#linear-gradient-14);}.cls-27{fill:url(#linear-gradient-15);}.cls-28{fill:url(#linear-gradient-16);}.cls-29{fill:url(#linear-gradient-17);}.cls-30{fill:url(#linear-gradient-18);}.cls-31{fill:url(#linear-gradient-19);}.cls-32{fill:url(#linear-gradient-20);}.cls-33{stroke:#ffbe00;stroke-width:2px;}.cls-34{stroke:url(#linear-gradient-21);}.cls-35{fill:url(#linear-gradient-23);}.cls-36{fill:#3a3a3a;}.cls-37{fill:#4d4d4d;}.cls-38{fill:#fbb345;}.cls-39{fill:url(#linear-gradient-24);}.cls-40{fill:url(#linear-gradient-25);}.cls-41{fill:url(#linear-gradient-26);}.cls-42{fill:url(#linear-gradient-28);}.cls-43{fill:url(#linear-gradient-29);}.cls-44{fill:#fff;}</style><clipPath id="clip-path"><rect class="cls-1" width="1512" height="731"/></clipPath><linearGradient id="linear-gradient" x1="756" y1="732" x2="756" y2="1" gradientTransform="matrix(1, 0, 0, -1, 0, 732)" gradientUnits="userSpaceOnUse"><stop offset="0" stop-color="#8f6fda"/><stop offset="1" stop-color="#9762bb" stop-opacity="0.5"/></linearGradient><linearGradient id="linear-gradient-2" x1="854.92" y1="402.11" x2="1266.93" y2="402.11" gradientTransform="matrix(1, 0, 0, -1, 0, 732)" gradientUnits="userSpaceOnUse"><stop offset="0" stop-color="#e5a003"/><stop offset="1" stop-color="#fdda42"/></linearGradient><linearGradient id="linear-gradient-3" x1="854.92" y1="298.81" x2="1092.86" y2="298.81" xlink:href="#linear-gradient-2"/><linearGradient id="linear-gradient-4" x1="1246.26" y1="354.09" x2="1291.93" y2="354.09" xlink:href="#linear-gradient-2"/><linearGradient id="linear-gradient-5" x1="1092.86" y1="277.08" x2="1266.93" y2="277.08" xlink:href="#linear-gradient-2"/><linearGradient id="linear-gradient-6" x1="1112.96" y1="350.64" x2="1112.96" y2="378.08" gradientTransform="matrix(1, 0, 0, -1, 0, 732)" gradientUnits="userSpaceOnUse"><stop offset="0" stop-color="#fdda42"/><stop offset="1" stop-color="#e5a003"/></linearGradient><linearGradient id="linear-gradient-7" x1="1115.58" y1="414.59" x2="1115.58" y2="451.25" xlink:href="#linear-gradient-6"/><linearGradient id="linear-gradient-8" x1="1001.22" y1="382.66" x2="1001.22" y2="416.87" xlink:href="#linear-gradient-6"/><linearGradient id="linear-gradient-9" x1="1134" y1="480.99" x2="1180.96" y2="560.15" xlink:href="#linear-gradient-6"/><linearGradient id="linear-gradient-11" x1="1163.98" y1="583.04" x2="1155.69" y2="569.24" xlink:href="#linear-gradient-6"/><linearGradient id="linear-gradient-12" x1="1131.04" y1="478.01" x2="1178.01" y2="557.17" xlink:href="#linear-gradient-6"/><linearGradient id="linear-gradient-13" x1="1133.67" y1="482.44" x2="1175.39" y2="552.76" xlink:href="#linear-gradient-2"/><linearGradient id="linear-gradient-14" x1="1139.05" y1="491.52" x2="1169.99" y2="543.67" xlink:href="#linear-gradient-6"/><linearGradient id="linear-gradient-15" x1="1134.04" y1="528.9" x2="1142.72" y2="528.9" xlink:href="#linear-gradient-6"/><linearGradient id="linear-gradient-16" x1="1147.18" y1="519.92" x2="1156.8" y2="519.92" xlink:href="#linear-gradient-6"/><linearGradient id="linear-gradient-17" x1="1158.16" y1="509.65" x2="1175.16" y2="509.65" xlink:href="#linear-gradient-6"/><linearGradient id="linear-gradient-18" x1="1127.65" y1="535.31" x2="1259.7" y2="467.81" xlink:href="#linear-gradient-6"/><linearGradient id="linear-gradient-19" x1="1126.31" y1="532.69" x2="1258.35" y2="465.19" xlink:href="#linear-gradient-6"/><linearGradient id="linear-gradient-20" x1="1125.73" y1="531.51" x2="1257.76" y2="464.01" xlink:href="#linear-gradient-6"/><linearGradient id="linear-gradient-21" x1="1045.82" y1="487.74" x2="1046.82" y2="487.74" xlink:href="#linear-gradient-6"/><linearGradient id="linear-gradient-23" x1="1136.6" y1="398.15" x2="1160.42" y2="356.92" gradientTransform="matrix(1, 0, 0, -1, 0, 732)" gradientUnits="userSpaceOnUse"><stop offset="0" stop-color="#9ed0ff"/><stop offset="0.62" stop-color="#fff"/><stop offset="1" stop-color="#9ed0ff"/></linearGradient><linearGradient id="linear-gradient-24" x1="1136.89" y1="398.31" x2="1160.69" y2="357.07" gradientTransform="matrix(1, 0, 0, -1, 0, 732)" gradientUnits="userSpaceOnUse"><stop offset="0" stop-color="#9ed0ff"/><stop offset="0.62" stop-color="#e7ffff"/><stop offset="1" stop-color="#9ed0ff"/></linearGradient><linearGradient id="linear-gradient-25" x1="1147.54" y1="353.82" x2="1139.01" y2="389.21" xlink:href="#linear-gradient-2"/><linearGradient id="linear-gradient-26" x1="1152.38" y1="354.72" x2="1138" y2="388.58" gradientTransform="matrix(1, 0, 0, -1, 0, 732)" gradientUnits="userSpaceOnUse"><stop offset="0" stop-color="#e5a003"/><stop offset="0.53" stop-color="#fdda42"/><stop offset="1" stop-color="#e5a003"/></linearGradient><linearGradient id="linear-gradient-28" x1="1037.24" y1="461.3" x2="1056.93" y2="461.3" xlink:href="#linear-gradient-6"/><linearGradient id="linear-gradient-29" x1="1046.84" y1="443.27" x2="1046.84" y2="487.38" xlink:href="#linear-gradient-6"/></defs><g class="cls-2"><rect class="cls-3" width="1512" height="731"/><g class="cls-4"><path class="cls-5" d="M1706.47,35.16c-51.29-19.7-110.45-27.6-168.78-22.53-54.63,4.88-106.31,21-161.16,24.3C1317.15,40.35,1258,28.63,1210.46,4l36.82,20.69c-77.46-11.3-165.88-21.16-229.51,11.22-57.17,29-79.71,86.28-145.46,104.91C842.08,149.38,808,148,775.59,151c-44.39,4.15-87.87,17.55-117.28,40.7s-42.47,57-28,86c13.18,26.6,46.27,46.11,66.5,70.54,13.11,16.12,20.55,34.11,21.75,52.55s-3.88,36.81-14.83,53.66c-13.71,20.6-35.63,37.93-55.23,56.18-25.79,24.1-47.9,50.64-57.93,79.78s-7.12,61.06,14.66,87c24.44,29.11,71.25,48,119.83,51.82s98.54-6.43,139.11-25.27c30.76-14.27,57-33.45,91-43.85,43.6-13.38,94.43-10.47,140.32-1.37s88.88,24,134.15,34.51c88.08,20.33,182.63,23.65,273.28,9.61,80.62-12.59,163.89-44.84,186.38-99.31,18.27-44.17-8-91.17-40.9-131.07-29-35.18-64.82-71.63-59.83-111.92,5.47-44.17,58-77.75,107.38-106.42s102.61-61.38,110.23-105.4C1814.23,102.17,1766,58.21,1706.47,35.16Z"/></g><path class="cls-6" d="M949.59,442.07,776,541.62l130.88,75.56h43l142.51-82.27Z"/><path class="cls-6" d="M906.88,617.18l21.68-12.29,21.3,12.29Z"/><path class="cls-7" d="M957.58,596.61l14.66-8.46L842.76,512.61l-15.32,8.68Z"/><path class="cls-7" d="M980.68,585.07l14.66-8.46L865.88,501.07l-15.33,8.71Z"/><path class="cls-7" d="M1004,573.26l14.66-8.46L889.23,489.26,873.9,498Z"/><path class="cls-7" d="M970.46,528.31l30.76-17.94-71.73-42-31.43,18.17Z"/><path class="cls-8" d="M1073.2,303.64,899.72,404.46l237.94,137.39L1311.73,442Z"/><path class="cls-9" d="M1311.73,442a108,108,0,0,1,1.9,43.62l-1.9,12.18-174.07,99.82V541.78Z"/><path class="cls-10" d="M899.72,404.46v56.33l237.94,136.9V541.85Z"/><path class="cls-8" d="M899.72,454.38l237.94,137v6.26L899.72,460.79Z"/><path class="cls-8" d="M1311.73,442l-12.27,7c7.19,8.18,14.87,24,4.74,50.45l7.59-2,1.89-11.82A107.84,107.84,0,0,0,1311.73,442Z"/><path class="cls-8" d="M1311.73,497.85l-174.07,99.84v-6L1304.2,499.5Z"/><g class="cls-11"><path class="cls-8" d="M1311.73,497.85l-174.07,99.84v-6L1304.2,499.5Z"/></g><g class="cls-11"><path class="cls-8" d="M1311.73,442l-12.27,7c7.19,8.18,14.87,24,4.74,50.45l7.59-2,1.89-11.82A107.84,107.84,0,0,0,1311.73,442Z"/></g><path class="cls-12" d="M904.17,414.1l233.49,134.81"/><path class="cls-12" d="M904.17,425.76l233.49,134.81"/><path class="cls-12" d="M904.17,437.43l233.49,134.8"/><path class="cls-12" d="M904.17,449.11l233.49,134.81"/><path class="cls-12" d="M1141.57,546.36l156.2-88.77"/><path class="cls-12" d="M1141.57,558.31l156.2-88.78"/><path class="cls-12" d="M1141.57,570.26l156.2-88.78"/><path class="cls-12" d="M1141.57,582.21l156.2-88.78"/><path class="cls-13" d="M1028.4,210.78,854.92,311.62,1092.86,449l174.07-99.81Z"/><path class="cls-9" d="M1266.93,349.18a108.17,108.17,0,0,1,1.9,43.62l-1.9,12.15-174.07,99.82V449Z"/><path class="cls-10" d="M854.92,311.62V368l237.94,136.88V449Z"/><path class="cls-14" d="M854.92,361.54l237.94,137v6.26L854.92,368Z"/><path class="cls-15" d="M1266.93,349.18l-12.27,7c7.17,8.18,14.87,24,4.74,50.43l7.59-2,1.9-11.79A108.1,108.1,0,0,0,1266.93,349.18Z"/><path class="cls-16" d="M1266.93,405l-174.07,99.82v-6l166.54-92.2Z"/><path class="cls-12" d="M859.37,321.24l233.49,134.81"/><path class="cls-12" d="M859.37,332.92l233.49,134.81"/><path class="cls-12" d="M859.37,344.59,1092.86,479.4"/><path class="cls-12" d="M859.37,356.25l233.49,134.81"/><path class="cls-12" d="M1096.77,453.53,1253,364.75"/><path class="cls-12" d="M1096.77,465.48,1253,376.7"/><path class="cls-12" d="M1096.77,477.42,1253,388.64"/><path class="cls-12" d="M1096.77,489.37,1253,400.59"/><path class="cls-17" d="M1108.76,377.93a14.81,14.81,0,0,1-6.28,2.73c-3.41.74-6.68.36-8.38-1.1s-1.43-3.79,1.1-5.27a14.25,14.25,0,0,0,2.67-2.17c1.42-1,2.69-2,4.21-3.24a50.06,50.06,0,0,0-8.23-5.08,26.29,26.29,0,0,1-4.21-2.64c-1.9-1.78-.49-4.47,2.1-5.69a14.24,14.24,0,0,1,5.32-1.41,14,14,0,0,1,5.44.75c2,1,3.7,2.22,5.69,3.24,1.27.67,2.79,1.27,4.19,1.9a60.36,60.36,0,0,0,5.46-3.79,12.65,12.65,0,0,1,9-2.15c3.53.32,5.58,2,5,4a9.51,9.51,0,0,1-4,4.61,42.92,42.92,0,0,0-4.55,3.53c1.29.8,2.35,1.78,3.62,2.45a74.57,74.57,0,0,0,6.83,3.79,6.24,6.24,0,0,1,2.71,2.16c1.9,2,0,3.79-2.73,5.41a12.6,12.6,0,0,1-8.91.83c-1.9-.89-4-1.78-5.69-2.71-2-1-4-2.18-6.19-3.4a36.32,36.32,0,0,0-4.11,3.21Z"/><path class="cls-18" d="M1083.85,313.46a33.25,33.25,0,0,1-6.44-4.95,7.71,7.71,0,0,1-1.81-3.39,2.1,2.1,0,0,1,.27-1.23,9.23,9.23,0,0,1,3.39-4.19,17.53,17.53,0,0,1,6.7-3,68.63,68.63,0,0,1,8.38-1.67,75.25,75.25,0,0,1,9.49-.63,14.16,14.16,0,0,1,2.5.16c-1-1.05-1.71-1.9-2.58-3a4.21,4.21,0,0,1-.92-1.4,4.25,4.25,0,0,1-.28-1.65,4.12,4.12,0,0,1,1.41-3,17.15,17.15,0,0,1,3.39-2.54,16.2,16.2,0,0,1,4.29-1.39l3.79-.61a21,21,0,0,1,5-.17c2.87.21,4.59,1.33,4.55,2.7s-2.31,2.44-4.89,2.63c-.62,0-1.23.12-1.76.17a4.9,4.9,0,0,0-2.9.89c-.74.56-.93,1.07-.59,1.62a12.47,12.47,0,0,0,2,2.75c1.76,1.57,3.68,3.05,5.52,4.59.24.22.6.47.85.7a8.86,8.86,0,0,0,4.82,1.46,23,23,0,0,1,2.73.28,71,71,0,0,0,7.72.59,6.49,6.49,0,0,1,.77-.11c-1.89-.67-2.67-1.58-4.57-2.11a2.83,2.83,0,0,1-1-.53,9.41,9.41,0,0,0-3-1.55c-1.36-1.16-3.68-1.9-5.12-3-1-.82-2.39-1.55-3.66-2.39-.42-.21-.8-.55-1.25-.83,1.59-.74,3.58-1.05,5.21-1.62s3.34-1,5.18-1.46c1,.7,2.07,1.39,3.19,2a49.42,49.42,0,0,0,7,4,4.56,4.56,0,0,1,.86.42,67.39,67.39,0,0,0,7.49,3.91,7.36,7.36,0,0,0,2.39.68c3,.44,4.87,2.51,2.46,4.12a25.3,25.3,0,0,1-13.27,3.79c-1.06.11-2,.15-3.13.17a25.26,25.26,0,0,1-6.32-.41h-.42c-.36.32-.15.68,0,.94a8.91,8.91,0,0,1,1.64,4.95,2.39,2.39,0,0,1-.11,1,2.29,2.29,0,0,1-.56.87c-.65.9-1.35,1.77-2.08,2.6a10.13,10.13,0,0,1-5,2.24c-3.3.75-7.09,0-8-1.6-.34-.83,0-1.65,1.18-2.37a7.73,7.73,0,0,0,2.16-1.78,1.5,1.5,0,0,0,.31-.55,1.49,1.49,0,0,0,0-.63,13.1,13.1,0,0,0-1.74-4.11c-.17-.55-1-1-1.48-1.56a21.16,21.16,0,0,0-1.61-1.67,2.68,2.68,0,0,0-1.9-.95c-1.27-.26-2.52-.51-3.79-.72a11.85,11.85,0,0,1-1.45-.24,45.29,45.29,0,0,0-10.65-.72,17.66,17.66,0,0,0-8.86,2.18,2.22,2.22,0,0,0-.59.47,2.68,2.68,0,0,0-.54,1,2.63,2.63,0,0,0-.07,1.15,2.8,2.8,0,0,0,.41,1.07,2.72,2.72,0,0,0,.83.79c1.3,1,2.52,1.9,3.9,2.92,1,.74,2.18,1.41,3.3,2.15.69.43,1.46.89,2.26,1.36C1095.37,319.23,1085.77,314.66,1083.85,313.46Z"/><path class="cls-19" d="M1016.3,348.93l-1.41-.74c-1.59-1.12-3.28-2.24-4.91-3.41a1.41,1.41,0,0,1-.49-.38,17.49,17.49,0,0,0-3.79-2.77,17.07,17.07,0,0,1-1.77-1.25,12.13,12.13,0,0,0-1.89-1.29c-.78-.55-1.58-1.1-2.26-1.65a24.22,24.22,0,0,0-2.31-1.52c-1.33-1-2.56-2-4-3a3.16,3.16,0,0,0-1.23-.8,7.35,7.35,0,0,1-1.9-1.32c-.53-.48-1.44-.84-2.08-1.31-2.32-1.9-5.51-3.53-7.91-5.46l-3.13-2.54a14.43,14.43,0,0,1-1.9-1.48c-.72-.61-.49-1.41.3-2.26,2.41-2.16,8.67-3.45,11.12-2a29.84,29.84,0,0,1,3.55,2.45l1,.7c1.33.81,2.68,1.63,3.93,2.5,1.55,1.05,3.11,2.07,4.59,3.17a2.86,2.86,0,0,1,.93.64,21.33,21.33,0,0,0,3.6,2.66c1.63,1,3,2.07,4.44,3.09,1.9,1.4,4.08,2.79,6.11,4.14a13,13,0,0,0,1.19.92c1.73,1.2,3.34,2.38,5.08,3.57l5.69,4a14.67,14.67,0,0,1,1,1.1c.38.78,0,1.35-1,2.26a12.42,12.42,0,0,1-10.49,2Zm5.21-14a7.35,7.35,0,0,1-1.68-1.52c-.5-1,0-2.16,1.11-3.31a15.58,15.58,0,0,1,7.82-3.48,30.55,30.55,0,0,1,8.1-.49,20.16,20.16,0,0,1,5.5.91c2.61.87,4.38,2.15,4.36,3.95,0,1.42-1.44,2.88-4.38,4.17a20.77,20.77,0,0,1-6.73,1.78,26.28,26.28,0,0,1-7.25.12,12.64,12.64,0,0,1-6.85-2.05Zm10.4-2.07a11.9,11.9,0,0,0,5.69,0c.62-1.4-1.44-1.89-3.09-2.27a11,11,0,0,0-5.81,0c0,1.06,1.18,1.93,3.21,2.27Zm-74.31,5a6.94,6.94,0,0,1-1.69-1.51c-.49-1,0-2.17,1.12-3.32a15.49,15.49,0,0,1,7.81-3.47,31,31,0,0,1,8.1-.5,20.49,20.49,0,0,1,5.5.91c2.6.9,4.38,2.15,4.36,4,0,1.4-1.44,2.86-4.38,4.17a21,21,0,0,1-6.73,1.78,27.43,27.43,0,0,1-7.24.12,12.55,12.55,0,0,1-6.85-2.15ZM968,335.79a11.9,11.9,0,0,0,5.69,0c.63-1.43-1.44-1.9-3.09-2.28a10.78,10.78,0,0,0-5.8,0c0,1.08,1.17,1.94,3.2,2.28Z"/><path class="cls-20" d="M1185.25,143.76a13.67,13.67,0,0,1-13.68,13.67,13.69,13.69,0,0,1,13.68,13.67,13.62,13.62,0,0,1,8.45-12.64,13.82,13.82,0,0,1,5.24-1,13.45,13.45,0,0,1-5.24-1,13.61,13.61,0,0,1-8.45-12.64Z"/><path class="cls-20" d="M1189.25,171.14a5.87,5.87,0,0,1-5.88,5.88,6,6,0,0,1,2.25.45,6.13,6.13,0,0,1,1.91,1.27,6,6,0,0,1,1.27,1.91,1.17,1.17,0,1,0,.9,0,5.73,5.73,0,0,1,1.28-1.91,5.82,5.82,0,0,1,4.17-1.72,5.83,5.83,0,0,1-2.26-.44,6,6,0,0,1-1.91-1.27,5.88,5.88,0,0,1-1.73-4.17Z"/><path class="cls-21" d="M1199.82,269.72c17.63-13.14,12.74-49.52-10.92-81.26s-57.12-46.81-74.75-33.67-12.74,49.52,10.92,81.26S1182.19,282.86,1199.82,269.72Z"/><path class="cls-22" d="M1199.82,269.72c17.63-13.14,12.74-49.52-10.92-81.26s-57.12-46.81-74.75-33.67-12.74,49.52,10.92,81.26S1182.19,282.86,1199.82,269.72Z"/><path class="cls-23" d="M1178.57,187.3l-6.52-3.89V171.22a8.6,8.6,0,0,0-4-6.45l-27.86-16.65c-2.22-1.33-4-.59-4,1.63v9.48l-6.53-3.9v-9.49c0-5.82,4.74-7.74,10.57-4.26L1168,158.23c5.83,3.47,10.57,11,10.57,16.88Z"/><path class="cls-24" d="M1196.88,272.67c17.63-13.13,12.74-49.52-10.92-81.25s-57.12-46.82-74.75-33.68-12.74,49.52,10.92,81.26S1179.25,285.81,1196.88,272.67Z"/><path class="cls-25" d="M1192.1,266.26c15.66-11.68,11.32-44-9.69-72.19s-50.75-41.58-66.41-29.91-11.33,44,9.69,72.19S1176.43,277.93,1192.1,266.26Z"/><path class="cls-26" d="M1182.27,253.07c11.61-8.65,8.39-32.62-7.19-53.54s-37.64-30.84-49.26-22.18-8.39,32.62,7.2,53.53S1170.65,261.73,1182.27,253.07Z"/><path class="cls-27" d="M1142.72,195.67v20.14l-4.64-2.79V196.6l-4-2.41v-3.8Z"/><path class="cls-28" d="M1156.8,208.49v4.13l-1-.64c-2.48-1.48-4.11-1.1-4.11,1.89v7.31l-4.5-2.68V203l4.34,2.56v2C1152.57,206.74,1154.41,207.07,1156.8,208.49Z"/><path class="cls-29" d="M1158.16,217.27c0-4.65,3.61-5.82,8.52-2.88s8.48,8.36,8.48,13-3.55,5.84-8.48,2.9S1158.16,221.93,1158.16,217.27Zm12.46,7.43a8.11,8.11,0,0,0-3.94-6.63c-2.24-1.33-4-.76-4,1.89a8.16,8.16,0,0,0,4,6.68C1168.92,228,1170.62,227.38,1170.62,224.7Z"/><path class="cls-30" d="M1142.19,194.45V214.6l-4.66-2.83V195.42l-4-2.41v-3.79Z"/><path class="cls-31" d="M1156.25,207.27v4.16l-1-.67c-2.48-1.48-4.11-1.1-4.11,1.9v7.26l-4.5-2.67V201.77l4.29,2.56v2C1152,205.53,1153.86,205.85,1156.25,207.27Z"/><path class="cls-32" d="M1157.61,216.07c0-4.66,3.61-5.82,8.52-2.9s8.5,8.38,8.5,13-3.57,5.84-8.5,2.92S1157.61,220.72,1157.61,216.07Zm12.46,7.42a8,8,0,0,0-3.94-6.62c-2.24-1.35-4-.76-4,1.9a8,8,0,0,0,1.14,3.82,8.07,8.07,0,0,0,2.82,2.81c2.26,1.37,3.94.76,3.94-1.91Z"/><path class="cls-33" d="M993.29,614.83,1024,598a12.29,12.29,0,0,1,11.62-.1h0a4.54,4.54,0,0,1,2.42,3.93,4.54,4.54,0,0,1-2.25,4l-26.3,15.4a20.88,20.88,0,0,1-21.13,0h0c-4.59-2.71-4.57-7.15,0-9.82l53.11-31a24.93,24.93,0,0,1,25.49.21h0a8.15,8.15,0,0,1,0,14l-53,31.22"/><path class="cls-33" d="M1152.25,494.49l30.72-16.8a12.23,12.23,0,0,1,11.61-.09h0a4.56,4.56,0,0,1,2.42,3.92,4.7,4.7,0,0,1-.58,2.32,4.62,4.62,0,0,1-1.67,1.7l-26.31,15.4a20.82,20.82,0,0,1-21.13,0h0c-4.59-2.71-4.57-7.15,0-9.82l53.11-31a25,25,0,0,1,25.49.22h0a8.13,8.13,0,0,1,4,7,8.13,8.13,0,0,1-4,7l-53,31.22"/><path class="cls-34" d="M1046.32,211.41v65.7"/><path class="cls-34" d="M1046.32,211.41v65.7"/><path class="cls-6" d="M1013.51,455.69,1005,471.81s-13.28,9.48-32.25-3.79c-21.94-15.59-19.83-38.79-16.25-41.73S988.85,405,1013.51,455.69Z"/><path class="cls-6" d="M956.46,426.29s-6.31,21,27.82,27.35l22.44-16.12S979.22,405,956.46,426.29Z"/><path class="cls-6" d="M956.46,426.29A39.17,39.17,0,0,0,987,453.64l19.76-16.12S979.22,405,956.46,426.29Z"/><path class="cls-35" d="M956.46,426.29c22.76-15.65,59.42,8.69,48.52,45.52l159.08-102.42,164.36-88.64v-.23c0-22.17-11.85-61.53-49.5-43.19L1123.4,341.65S999.8,396.1,956.46,426.29Z"/><path class="cls-36" d="M1031.4,227.69c-21.4-12.45-56-12.45-77.27,0s-21.16,32.62.25,45.05,56,12.45,77.27,0S1052.81,240.12,1031.4,227.69Z"/><path class="cls-36" d="M1047.68,250.94a98,98,0,0,1-109.43,0V185h109.43Z"/><path class="cls-37" d="M992.29,256.43l104.64-59.87L992.29,136,889,196.21Z"/><path class="cls-36" d="M992.29,256.43v1.46L889,197.68v-1.47Z"/><path class="cls-38" d="M992.29,193l51,34.19V251.6h2V226.08L993,192.47Z"/><path class="cls-39" d="M956.46,426.29c22.76-15.65,59.42,8.69,48.52,45.52l159.08-102.42,164.36-88.64v-.23c3.91-18.59-11.85-61.53-49.5-43.19L1123.4,341.65S999.8,396.1,956.46,426.29Z"/><path class="cls-40" d="M1118.43,344s25.72-2.53,35.31,32.51l10.32-7.06s5.52-26.55-27.71-36.55Z"/><path class="cls-41" d="M1118.43,344s25.72-2.53,35.31,32.51l10.32-7.06s5.52-26.55-27.71-36.55Z"/><path class="cls-41" d="M1118.43,344s25.72-2.53,35.31,32.51l10.32-7.06s5.52-26.55-27.71-36.55Z"/><path class="cls-42" d="M1056.93,290.25l-6.68-24.66a8.08,8.08,0,1,0-9.06.55l-4,24.15Z"/><path class="cls-43" d="M1056.69,289.13,1050,264.48a8.09,8.09,0,0,0,2.62-9.24,8,8,0,0,0-3.16-3.94,8.07,8.07,0,0,0-12.25,4.88A8.06,8.06,0,0,0,1041,265L1037,289.17Z"/><path class="cls-44" d="M289.24,214.88l10.2-43.07h5.69l1.3,7.17-10.86,44h-6.12ZM284,171.81l8.44,43.07-.7,8.12h-6.82l-11.36-51.19Zm31.4,42.89,8.33-42.89h10.44L322.85,223H316Zm-7.07-42.89,10.27,43.24-.28,7.95H312.2L301.26,179l1.41-7.14Zm50.2,51.89a21.45,21.45,0,0,1-7.95-1.4,17.08,17.08,0,0,1-9.7-9.85,19.92,19.92,0,0,1-1.3-7.17v-1.4a24.28,24.28,0,0,1,1.23-7.92,18.51,18.51,0,0,1,3.52-6.22,15.39,15.39,0,0,1,5.62-4,18.47,18.47,0,0,1,7.45-1.44,18.17,18.17,0,0,1,7.18,1.33,14.14,14.14,0,0,1,5.24,3.8,16.56,16.56,0,0,1,3.23,5.91,24.72,24.72,0,0,1,1.09,7.59v4.22H343.9v-6.75h20.29v-.77a8.91,8.91,0,0,0-.77-3.77,6.11,6.11,0,0,0-2.25-2.67,7,7,0,0,0-3.87-1,6.42,6.42,0,0,0-3.44.88,6.65,6.65,0,0,0-2.36,2.46,13.33,13.33,0,0,0-1.34,3.72,23.92,23.92,0,0,0-.42,4.65v1.4a13.58,13.58,0,0,0,.63,4.22,10.34,10.34,0,0,0,1.87,3.34,8.5,8.5,0,0,0,2.95,2.18,9.7,9.7,0,0,0,4,.77,12.38,12.38,0,0,0,5.1-1,11,11,0,0,0,4.11-3.27l4.93,5.34a15.21,15.21,0,0,1-3.27,3.31,17.61,17.61,0,0,1-4.92,2.6A20.28,20.28,0,0,1,358.53,223.7ZM393.47,169v54H383.31V169Zm27,46.79a7.42,7.42,0,0,0,3.31-.7,5.56,5.56,0,0,0,2.25-2,5.94,5.94,0,0,0,.88-3.13h9.53a12.73,12.73,0,0,1-2.15,7.14,14.75,14.75,0,0,1-5.66,4.89,17.67,17.67,0,0,1-7.94,1.75,18.88,18.88,0,0,1-7.74-1.47,15.28,15.28,0,0,1-5.45-4.08,18,18,0,0,1-3.27-6.12,25.46,25.46,0,0,1-1.09-7.52v-1a25.33,25.33,0,0,1,1.09-7.53,17.52,17.52,0,0,1,3.27-6.11,15,15,0,0,1,5.45-4.12,18.58,18.58,0,0,1,7.67-1.47,17.77,17.77,0,0,1,8.19,1.79,13.42,13.42,0,0,1,5.55,5.13A14.94,14.94,0,0,1,436.4,199h-9.53a7.82,7.82,0,0,0-.81-3.44,5.83,5.83,0,0,0-2.18-2.46,6,6,0,0,0-3.48-1,6.29,6.29,0,0,0-3.62,1,6,6,0,0,0-2.18,2.53,12.39,12.39,0,0,0-1.09,3.62,29.9,29.9,0,0,0-.28,4.22v1a30.75,30.75,0,0,0,.28,4.25,12.08,12.08,0,0,0,1.05,3.62,6.34,6.34,0,0,0,2.22,2.5A6.58,6.58,0,0,0,420.43,215.79Zm23.1-11.42v-.74a23.68,23.68,0,0,1,1.2-7.7,17.52,17.52,0,0,1,3.48-6.15,15.58,15.58,0,0,1,5.62-4.05,18.86,18.86,0,0,1,7.66-1.47,19.09,19.09,0,0,1,7.7,1.47,15.56,15.56,0,0,1,5.66,4.05,17.45,17.45,0,0,1,3.52,6.15,23.68,23.68,0,0,1,1.2,7.7v.74a24,24,0,0,1-1.2,7.7,18,18,0,0,1-3.52,6.15,15.55,15.55,0,0,1-5.62,4,19.2,19.2,0,0,1-7.66,1.44,19.44,19.44,0,0,1-7.7-1.44,15.88,15.88,0,0,1-5.66-4,18.07,18.07,0,0,1-3.48-6.15A24,24,0,0,1,443.53,204.37Zm10.12-.74v.74a22.43,22.43,0,0,0,.43,4.46,12.11,12.11,0,0,0,1.33,3.66,7,7,0,0,0,2.46,2.42,7.21,7.21,0,0,0,3.7.88,7.06,7.06,0,0,0,3.62-.88,6.68,6.68,0,0,0,2.42-2.42,12.12,12.12,0,0,0,1.34-3.66,21,21,0,0,0,.45-4.46v-.74a20.19,20.19,0,0,0-.45-4.36,11.64,11.64,0,0,0-1.37-3.66,6.87,6.87,0,0,0-2.43-2.53,7.8,7.8,0,0,0-7.31,0,7.29,7.29,0,0,0-2.43,2.53,12.11,12.11,0,0,0-1.33,3.66A21.56,21.56,0,0,0,453.65,203.63Zm45.14-10.79V223H488.63V185h9.53Zm-1.4,9.81h-2.82a26.85,26.85,0,0,1,.95-7.32,17.92,17.92,0,0,1,2.85-5.83,13,13,0,0,1,4.68-3.87,14.25,14.25,0,0,1,6.43-1.37,13.48,13.48,0,0,1,4.64.77,8.87,8.87,0,0,1,3.62,2.36,10.42,10.42,0,0,1,2.39,4.15,19.05,19.05,0,0,1,.85,6.08V223H510.85V198.74a9.19,9.19,0,0,0-.7-4,4,4,0,0,0-2-2,7.38,7.38,0,0,0-3.05-.57,7,7,0,0,0-3.45.81,6.85,6.85,0,0,0-2.39,2.25,10.25,10.25,0,0,0-1.41,3.31A17.59,17.59,0,0,0,497.39,202.65ZM520,201.48l-3.62.46a25.07,25.07,0,0,1,.91-6.92,17.44,17.44,0,0,1,2.78-5.63,12.8,12.8,0,0,1,4.6-3.76,13.91,13.91,0,0,1,6.33-1.37,14.63,14.63,0,0,1,5,.81,9,9,0,0,1,3.83,2.49,11,11,0,0,1,2.47,4.43,22.44,22.44,0,0,1,.88,6.72V223H533V198.71a9,9,0,0,0-.7-4,3.64,3.64,0,0,0-2-1.93,7.3,7.3,0,0,0-3-.57,6.66,6.66,0,0,0-3.2.74,6.56,6.56,0,0,0-2.29,2,9.32,9.32,0,0,0-1.37,3A13.75,13.75,0,0,0,520,201.48Zm51.39,22.22a21.36,21.36,0,0,1-7.94-1.4,17.36,17.36,0,0,1-6-4,17.55,17.55,0,0,1-3.73-5.87,19.92,19.92,0,0,1-1.3-7.17v-1.4A24.28,24.28,0,0,1,553.7,196a18.68,18.68,0,0,1,3.52-6.22,15.47,15.47,0,0,1,5.62-4,18.52,18.52,0,0,1,7.46-1.44,18.16,18.16,0,0,1,7.17,1.33,14.14,14.14,0,0,1,5.24,3.8,16.26,16.26,0,0,1,3.23,5.91,24.72,24.72,0,0,1,1.09,7.59v4.22H556.8v-6.75h20.28v-.77a8.76,8.76,0,0,0-.77-3.77,6,6,0,0,0-2.25-2.67,7,7,0,0,0-3.87-1,6.45,6.45,0,0,0-3.44.88,6.73,6.73,0,0,0-2.36,2.46,13.33,13.33,0,0,0-1.34,3.72,23.92,23.92,0,0,0-.42,4.65v1.4a13.29,13.29,0,0,0,.64,4.22,10.13,10.13,0,0,0,1.86,3.34,8.5,8.5,0,0,0,3,2.18,9.73,9.73,0,0,0,4,.77,12.38,12.38,0,0,0,5.1-1,11.09,11.09,0,0,0,4.12-3.27l4.92,5.34a15.21,15.21,0,0,1-3.27,3.31,17.61,17.61,0,0,1-4.92,2.6A20.23,20.23,0,0,1,571.42,223.7Zm-144,43.11V318H416.92V266.81Zm15.75,0v8.26H401.42v-8.26Zm.53,32.56v-.74a23.69,23.69,0,0,1,1.19-7.7,17.84,17.84,0,0,1,3.48-6.15,15.61,15.61,0,0,1,5.63-4,18.83,18.83,0,0,1,7.66-1.47,19.12,19.12,0,0,1,7.7,1.47,15.56,15.56,0,0,1,5.66,4,17.45,17.45,0,0,1,3.52,6.15,24,24,0,0,1,1.19,7.7v.74a24.22,24.22,0,0,1-1.19,7.7,18,18,0,0,1-3.52,6.15,15.59,15.59,0,0,1-5.63,4,19.17,19.17,0,0,1-7.66,1.44,19.47,19.47,0,0,1-7.7-1.44,16.05,16.05,0,0,1-5.66-4,18.41,18.41,0,0,1-3.48-6.15A24,24,0,0,1,443.71,299.37Zm10.12-.74v.74a22.45,22.45,0,0,0,.42,4.46,12.12,12.12,0,0,0,1.34,3.66,6.87,6.87,0,0,0,2.46,2.42,7.2,7.2,0,0,0,3.69.88,7,7,0,0,0,3.62-.88,6.63,6.63,0,0,0,2.43-2.42,12.11,12.11,0,0,0,1.33-3.66,20.36,20.36,0,0,0,.46-4.46v-.74a19.57,19.57,0,0,0-.46-4.36,11.4,11.4,0,0,0-1.37-3.66,7.31,7.31,0,0,0-9.74-2.53,7.26,7.26,0,0,0-2.42,2.53,12.12,12.12,0,0,0-1.34,3.66A21.58,21.58,0,0,0,453.83,298.63ZM251.75,426a9.08,9.08,0,0,0-.57-3.31,6.28,6.28,0,0,0-2-2.75,17.67,17.67,0,0,0-4.12-2.51,59.64,59.64,0,0,0-6.87-2.56,85.65,85.65,0,0,1-8.9-3.41,36.65,36.65,0,0,1-7.39-4.4,19.84,19.84,0,0,1-5-5.92,17.47,17.47,0,0,1,.09-15.63,18,18,0,0,1,5.31-6.06,25.09,25.09,0,0,1,8.05-3.94,36.63,36.63,0,0,1,10.28-1.37,30.3,30.3,0,0,1,13.31,2.75,21.39,21.39,0,0,1,8.81,7.53,19.39,19.39,0,0,1,3.17,10.94H251.79a10.63,10.63,0,0,0-1.27-5.3,8.64,8.64,0,0,0-3.79-3.65,13.58,13.58,0,0,0-6.35-1.33,14.7,14.7,0,0,0-6.16,1.14,8.24,8.24,0,0,0-3.69,3,7.37,7.37,0,0,0-1.23,4.17,6,6,0,0,0,.85,3.17,9.54,9.54,0,0,0,2.65,2.66,24.13,24.13,0,0,0,4.31,2.32q2.56,1.08,5.92,2.13a63.23,63.23,0,0,1,9.9,3.84,30.75,30.75,0,0,1,7.2,4.78,17.78,17.78,0,0,1,4.36,6,18.92,18.92,0,0,1,1.47,7.63,17.94,17.94,0,0,1-1.76,8.05,16.42,16.42,0,0,1-5.06,6,23.85,23.85,0,0,1-7.91,3.74,40.39,40.39,0,0,1-20.37-.05,30.8,30.8,0,0,1-9.05-4.12,20.81,20.81,0,0,1-6.44-7A20.12,20.12,0,0,1,213,422.4h14.25a13.23,13.23,0,0,0,1,5.45,9.12,9.12,0,0,0,2.79,3.6,12.12,12.12,0,0,0,4.36,2,23.94,23.94,0,0,0,5.59.61,15.06,15.06,0,0,0,6.06-1,7.42,7.42,0,0,0,3.55-2.89A7.55,7.55,0,0,0,251.75,426Zm67.72-4.83h14.17a25.72,25.72,0,0,1-3.84,12.36,22.9,22.9,0,0,1-9.43,8.44,31.9,31.9,0,0,1-14.49,3A29.63,29.63,0,0,1,294,442.67a25.23,25.23,0,0,1-9-6.63,29.41,29.41,0,0,1-5.63-10.42,44.87,44.87,0,0,1-1.94-13.69v-4.78a44.32,44.32,0,0,1,2-13.69A30.32,30.32,0,0,1,285.18,383a25.73,25.73,0,0,1,9.05-6.64A28.89,28.89,0,0,1,306,374a30.92,30.92,0,0,1,14.54,3.13,22.81,22.81,0,0,1,9.23,8.62,29.14,29.14,0,0,1,4,12.5H319.52a18.24,18.24,0,0,0-1.66-7.05,9.36,9.36,0,0,0-4.31-4.41,16.13,16.13,0,0,0-7.57-1.51,13.79,13.79,0,0,0-6.21,1.32,11.56,11.56,0,0,0-4.45,4,19.84,19.84,0,0,0-2.7,6.82,47,47,0,0,0-.85,9.57v4.87a48.87,48.87,0,0,0,.8,9.43,21.84,21.84,0,0,0,2.46,6.82,11.52,11.52,0,0,0,4.36,4.17,14.23,14.23,0,0,0,6.49,1.37,16.55,16.55,0,0,0,7.34-1.42,9.82,9.82,0,0,0,4.41-4.21A16.55,16.55,0,0,0,319.47,421.12Zm73.36-18v11.09h-36V403.12ZM361.05,375v69h-14.2V375ZM403,375v69H388.81V375Zm72.89,32.87v3.27a43.61,43.61,0,0,1-2.13,14.11,31,31,0,0,1-6,10.66,26.17,26.17,0,0,1-9.28,6.68,31.63,31.63,0,0,1-23.78,0,26.71,26.71,0,0,1-9.28-6.68,31.21,31.21,0,0,1-6.11-10.66,43.61,43.61,0,0,1-2.13-14.11v-3.27a43.31,43.31,0,0,1,2.13-14.11,31.19,31.19,0,0,1,6-10.66,26.47,26.47,0,0,1,9.29-6.73,31.6,31.6,0,0,1,23.77,0,25.85,25.85,0,0,1,9.29,6.73,30.64,30.64,0,0,1,6.06,10.66A42.49,42.49,0,0,1,475.86,407.91Zm-14.35,3.27v-3.37a41.51,41.51,0,0,0-1-9.66,21,21,0,0,0-2.93-7,12.81,12.81,0,0,0-4.74-4.26,14.65,14.65,0,0,0-12.79,0,12.91,12.91,0,0,0-4.69,4.26,21.62,21.62,0,0,0-2.88,7,41.51,41.51,0,0,0-1,9.66v3.37a41.87,41.87,0,0,0,1,9.66,21.57,21.57,0,0,0,2.93,7.06,13.22,13.22,0,0,0,4.74,4.31,14.74,14.74,0,0,0,12.79,0,12.74,12.74,0,0,0,4.68-4.31,22,22,0,0,0,2.89-7.06A41.87,41.87,0,0,0,461.51,411.18Zm72.79,21.74V444H499.58V432.92ZM504.18,375v69H490V375Zm71.14,11.79L556.56,444H541.45l25.62-69h9.62ZM590.9,444l-18.81-57.17L570.58,375h9.71l25.76,69ZM590,418.33v11.13H553.62V418.33ZM616.33,375h25.72a35.23,35.23,0,0,1,13.59,2.37,18.85,18.85,0,0,1,8.81,7,20.21,20.21,0,0,1,3.08,11.41,21.85,21.85,0,0,1-1.9,9.52,17.76,17.76,0,0,1-5.25,6.58,27.27,27.27,0,0,1-7.91,4.17l-4.5,2.37H625.61l-.09-11.08h16.62a12.88,12.88,0,0,0,6.2-1.33,8.62,8.62,0,0,0,3.7-3.69,11.43,11.43,0,0,0,1.28-5.5,12.48,12.48,0,0,0-1.23-5.73,8.27,8.27,0,0,0-3.75-3.69,13.81,13.81,0,0,0-6.29-1.28H630.54V444H616.33Zm38.55,69-15.72-30.74,15-.09,15.92,30.17V444ZM378.67,545.42H361.1V534.34h17.57A14.41,14.41,0,0,0,385.3,533a8.53,8.53,0,0,0,3.75-3.79,12.22,12.22,0,0,0,1.18-5.45,13.89,13.89,0,0,0-1.18-5.73,9.53,9.53,0,0,0-3.75-4.26,12.28,12.28,0,0,0-6.63-1.61H366V570H351.82V501h26.85A30.29,30.29,0,0,1,392.55,504a20.9,20.9,0,0,1,8.9,8,22.17,22.17,0,0,1,3.08,11.7,21.11,21.11,0,0,1-3.08,11.55,20,20,0,0,1-8.9,7.54A33.21,33.21,0,0,1,378.67,545.42Zm59.72-32.59L419.64,570H404.53l25.62-69h9.62ZM454,570l-18.81-57.17L433.66,501h9.71l25.76,69Zm-.86-25.67v11.13H416.7V544.33ZM500.58,570h-15l.09-11.08h14.92a16.91,16.91,0,0,0,9.43-2.51,15.58,15.58,0,0,0,5.77-7.44,31.13,31.13,0,0,0,2-11.79v-3.37a34.86,34.86,0,0,0-1.13-9.33,18.66,18.66,0,0,0-3.27-6.77,13.74,13.74,0,0,0-5.35-4.12,17.67,17.67,0,0,0-7.3-1.42H485.28V501h15.44a32.8,32.8,0,0,1,12.65,2.37,28.47,28.47,0,0,1,10,6.67,29.94,29.94,0,0,1,6.49,10.43,36.87,36.87,0,0,1,2.32,13.4v3.27a37.14,37.14,0,0,1-2.32,13.4A29.9,29.9,0,0,1,523.36,561a28.9,28.9,0,0,1-10,6.68A34,34,0,0,1,500.58,570Zm-7-69v69H479.41V501Z"/></g></svg>